<svg width="40" height="40" viewBox="0 0 40 40" fill="none" xmlns="http://www.w3.org/2000/svg">
<g clip-path="url(#clip0_1941_857)">
<path d="M13.9344 1.31568C9.93775 2.70214 6.49107 5.3337 4.10059 8.82381C1.71012 12.3139 0.501846 16.4786 0.653255 20.7062C0.804664 24.9338 2.30777 29.0014 4.9418 32.3115C7.57583 35.6217 11.2019 37.9999 15.2875 39.0969C18.5998 39.9516 22.07 39.9891 25.4 39.2063C28.4166 38.5287 31.2056 37.0793 33.4937 35.0001C35.8752 32.7699 37.6039 29.9328 38.4937 26.7938C39.461 23.3803 39.6331 19.7905 38.9969 16.3001H20.3969V24.0157H31.1687C30.9535 25.2463 30.4921 26.4208 29.8123 27.4689C29.1326 28.517 28.2483 29.4173 27.2125 30.1157C25.8971 30.9858 24.4144 31.5712 22.8594 31.8344C21.2998 32.1244 19.7002 32.1244 18.1406 31.8344C16.56 31.5076 15.0647 30.8552 13.75 29.9188C11.638 28.4238 10.0521 26.2998 9.21875 23.8501C8.37129 21.3544 8.37129 18.6488 9.21875 16.1532C9.81195 14.4039 10.7926 12.8111 12.0875 11.4938C13.5693 9.95864 15.4454 8.8613 17.5099 8.32217C19.5743 7.78304 21.7474 7.82296 23.7906 8.43756C25.3868 8.92753 26.8464 9.78361 28.0531 10.9376C29.2677 9.72922 30.4802 8.51776 31.6906 7.30318C32.3156 6.65006 32.9969 6.02818 33.6125 5.35943C31.7705 3.64529 29.6084 2.31148 27.25 1.43443C22.9553 -0.124977 18.2562 -0.166884 13.9344 1.31568Z" fill="white"/>
<path d="M13.9344 1.31561C18.2558 -0.16796 22.955 -0.127156 27.25 1.43124C29.6088 2.31425 31.77 3.65448 33.6094 5.37499C32.9844 6.04374 32.325 6.66874 31.6875 7.31874C30.475 8.52915 29.2635 9.7354 28.0531 10.9375C26.8464 9.78354 25.3868 8.92746 23.7906 8.43749C21.748 7.82074 19.5751 7.77851 17.5101 8.31543C15.4451 8.85235 13.5679 9.94768 12.0844 11.4812C10.7895 12.7985 9.80883 14.3913 9.21563 16.1406L2.7375 11.125C5.05628 6.52674 9.07109 3.00944 13.9344 1.31561Z" fill="#E33629"/>
<path d="M1.01875 16.0938C1.36694 14.3681 1.94501 12.697 2.7375 11.125L9.21562 16.1531C8.36817 18.6488 8.36817 21.3544 9.21562 23.85C7.05729 25.5167 4.89791 27.1917 2.7375 28.875C0.753593 24.926 0.148537 20.4266 1.01875 16.0938Z" fill="#F8BD00"/>
<path d="M20.3969 16.2969H38.9969C39.6331 19.7873 39.461 23.3771 38.4937 26.7906C37.6039 29.9296 35.8752 32.7667 33.4937 34.9969C31.4031 33.3656 29.3031 31.7469 27.2125 30.1156C28.249 29.4165 29.1336 28.5153 29.8135 27.466C30.4933 26.4168 30.9542 25.2411 31.1687 24.0094H20.3969C20.3937 21.4406 20.3969 18.8687 20.3969 16.2969Z" fill="#587DBD"/>
<path d="M2.73438 28.875C4.89479 27.2083 7.05417 25.5333 9.2125 23.85C10.0475 26.3006 11.6356 28.4246 13.75 29.9187C15.0688 30.8508 16.5673 31.4979 18.15 31.8187C19.7096 32.1087 21.3092 32.1087 22.8688 31.8187C24.4237 31.5555 25.9065 30.9701 27.2219 30.1C29.3125 31.7312 31.4125 33.35 33.5031 34.9812C31.2153 37.0616 28.4263 38.5121 25.4094 39.1906C22.0794 39.9734 18.6091 39.9359 15.2969 39.0812C12.6772 38.3818 10.2302 37.1487 8.10938 35.4594C5.86457 33.6771 4.03111 31.4311 2.73438 28.875Z" fill="#319F43"/>
</g>
<defs>
<clipPath id="clip0_1941_857">
<rect width="40" height="40" fill="white"/>
</clipPath>
</defs>
</svg>
