<svg width="24" height="24" viewBox="0 0 24 24" fill="none" xmlns="http://www.w3.org/2000/svg">
<path d="M13.5 8.25C13.5 10.0402 12.7888 11.7571 11.523 13.023C10.2571 14.2888 8.54021 15 6.75 15C4.95979 15 3.2429 14.2888 1.97703 13.023C0.711159 11.7571 0 10.0402 0 8.25C0 6.45979 0.711159 4.7429 1.97703 3.47703C3.2429 2.21116 4.95979 1.5 6.75 1.5C8.54021 1.5 10.2571 2.21116 11.523 3.47703C12.7888 4.7429 13.5 6.45979 13.5 8.25ZM6.75 4.5C6.55109 4.5 6.36032 4.57902 6.21967 4.71967C6.07902 4.86032 6 5.05109 6 5.25V8.25C6 8.44891 6.07902 8.63968 6.21967 8.78033C6.36032 8.92098 6.55109 9 6.75 9H9C9.19891 9 9.38968 8.92098 9.53033 8.78033C9.67098 8.63968 9.75 8.44891 9.75 8.25C9.75 8.05109 9.67098 7.86032 9.53033 7.71967C9.38968 7.57902 9.19891 7.5 9 7.5H7.5V5.25C7.5 5.05109 7.42098 4.86032 7.28033 4.71967C7.13968 4.57902 6.94891 4.5 6.75 4.5ZM6.75 16.5C9.645 16.5 12.195 15.0075 13.665 12.75H17.2995L15.9345 10.191C15.7127 9.77504 15.3659 9.43924 14.943 9.231C15.0047 8.70378 15.0162 8.1719 14.9775 7.6425C15.4617 7.78071 15.9132 8.01504 16.3049 8.33151C16.6966 8.64798 17.0206 9.04011 17.2575 9.4845L18.9615 12.678L21.507 13.584C22.2361 13.8434 22.8671 14.322 23.3134 14.9542C23.7598 15.5864 23.9996 16.3411 24 17.115V17.6235C24 18.6885 23.367 19.6035 22.455 20.016C22.3371 20.6916 21.9913 21.3063 21.4752 21.7579C20.9591 22.2095 20.3038 22.4707 19.6186 22.4978C18.9334 22.525 18.2595 22.3166 17.7092 21.9073C17.159 21.4981 16.7656 20.9126 16.5945 20.2485H10.4055C10.2344 20.9126 9.84102 21.4981 9.29077 21.9073C8.74051 22.3166 8.06664 22.525 7.3814 22.4978C6.69616 22.4707 6.04092 22.2095 5.52482 21.7579C5.00872 21.3063 4.66291 20.6916 4.545 20.016C4.0848 19.8083 3.69427 19.4722 3.42024 19.0481C3.14621 18.624 3.0003 18.1299 3 17.625V15.954C3 15.838 3.005 15.723 3.015 15.609C4.137 16.179 5.406 16.5 6.75 16.5ZM6 19.5C6 19.8978 6.15804 20.2794 6.43934 20.5607C6.72064 20.842 7.10218 21 7.5 21C7.89782 21 8.27936 20.842 8.56066 20.5607C8.84196 20.2794 9 19.8978 9 19.5C9 19.1022 8.84196 18.7206 8.56066 18.4393C8.27936 18.158 7.89782 18 7.5 18C7.10218 18 6.72064 18.158 6.43934 18.4393C6.15804 18.7206 6 19.1022 6 19.5ZM19.5 18C19.1022 18 18.7206 18.158 18.4393 18.4393C18.158 18.7206 18 19.1022 18 19.5C18 19.8978 18.158 20.2794 18.4393 20.5607C18.7206 20.842 19.1022 21 19.5 21C19.8978 21 20.2794 20.842 20.5607 20.5607C20.842 20.2794 21 19.8978 21 19.5C21 19.1022 20.842 18.7206 20.5607 18.4393C20.2794 18.158 19.8978 18 19.5 18Z" fill="black" fill-opacity="0.75"/>
</svg>
