<svg width="24" height="24" viewBox="0 0 24 24" fill="none" xmlns="http://www.w3.org/2000/svg">
<path d="M4 15C3.16667 15 2.45833 14.7083 1.875 14.125C1.29167 13.5417 1 12.8333 1 12C1 11.1667 1.29167 10.4583 1.875 9.875C2.45833 9.29167 3.16667 9 4 9V7C4 6.45 4.196 5.97933 4.588 5.588C4.98 5.19667 5.45067 5.00067 6 5H9C9 4.16667 9.29167 3.45833 9.875 2.875C10.4583 2.29167 11.1667 2 12 2C12.8333 2 13.5417 2.29167 14.125 2.875C14.7083 3.45833 15 4.16667 15 5H18C18.55 5 19.021 5.196 19.413 5.588C19.805 5.98 20.0007 6.45067 20 7V9C20.8333 9 21.5417 9.29167 22.125 9.875C22.7083 10.4583 23 11.1667 23 12C23 12.8333 22.7083 13.5417 22.125 14.125C21.5417 14.7083 20.8333 15 20 15V19C20 19.55 19.8043 20.021 19.413 20.413C19.0217 20.805 18.5507 21.0007 18 21H6C5.45 21 4.97933 20.8043 4.588 20.413C4.19667 20.0217 4.00067 19.5507 4 19V15ZM9 13C9.41667 13 9.771 12.8543 10.063 12.563C10.355 12.2717 10.5007 11.9173 10.5 11.5C10.4993 11.0827 10.3537 10.7287 10.063 10.438C9.77233 10.1473 9.418 10.0013 9 10C8.582 9.99867 8.228 10.1447 7.938 10.438C7.648 10.7313 7.502 11.0853 7.5 11.5C7.498 11.9147 7.644 12.269 7.938 12.563C8.232 12.857 8.586 13.0027 9 13ZM15 13C15.4167 13 15.771 12.8543 16.063 12.563C16.355 12.2717 16.5007 11.9173 16.5 11.5C16.4993 11.0827 16.3537 10.7287 16.063 10.438C15.7723 10.1473 15.418 10.0013 15 10C14.582 9.99867 14.228 10.1447 13.938 10.438C13.648 10.7313 13.502 11.0853 13.5 11.5C13.498 11.9147 13.644 12.269 13.938 12.563C14.232 12.857 14.586 13.0027 15 13ZM9 17H15C15.2833 17 15.521 16.904 15.713 16.712C15.905 16.52 16.0007 16.2827 16 16C15.9993 15.7173 15.9033 15.48 15.712 15.288C15.5207 15.096 15.2833 15 15 15H9C8.71667 15 8.47933 15.096 8.288 15.288C8.09667 15.48 8.00067 15.7173 8 16C7.99933 16.2827 8.09533 16.5203 8.288 16.713C8.48067 16.9057 8.718 17.0013 9 17Z" fill="black" fill-opacity="0.75"/>
</svg>
