<svg width="25" height="24" viewBox="0 0 25 24" fill="none" xmlns="http://www.w3.org/2000/svg">
<path d="M6.425 21C6.04167 21 5.671 20.8667 5.313 20.6C4.955 20.3333 4.71733 20.0083 4.6 19.625C4.18333 18.225 3.84167 17.0127 3.575 15.988C3.30833 14.9633 3.09567 14.0633 2.937 13.288C2.77833 12.5127 2.666 11.825 2.6 11.225C2.534 10.625 2.50067 10.05 2.5 9.5C2.5 7.96667 3.03333 6.66667 4.1 5.6C5.16667 4.53333 6.46667 4 8 4H13C13.45 3.4 14.021 2.91667 14.713 2.55C15.405 2.18333 16.1673 2 17 2C17.4167 2 17.771 2.146 18.063 2.438C18.355 2.73 18.5007 3.084 18.5 3.5C18.5 3.6 18.4873 3.7 18.462 3.8C18.4367 3.9 18.4077 3.99167 18.375 4.075C18.3083 4.25833 18.246 4.44167 18.188 4.625C18.13 4.80833 18.084 5.00833 18.05 5.225L20.325 7.5H21.5C21.7833 7.5 22.021 7.596 22.213 7.788C22.405 7.98 22.5007 8.21733 22.5 8.5V13.75C22.5 13.9667 22.4377 14.1583 22.313 14.325C22.1883 14.4917 22.0173 14.6167 21.8 14.7L19.675 15.4L18.425 19.575C18.2917 20.0083 18.05 20.3543 17.7 20.613C17.35 20.8717 16.95 21.0007 16.5 21H14.5C13.95 21 13.4793 20.8043 13.088 20.413C12.6967 20.0217 12.5007 19.5507 12.5 19H10.5C10.5 19.55 10.3043 20.021 9.913 20.413C9.52167 20.805 9.05067 21.0007 8.5 21H6.425ZM16.5 11C16.7833 11 17.021 10.904 17.213 10.712C17.405 10.52 17.5007 10.2827 17.5 10C17.4993 9.71733 17.4033 9.48 17.212 9.288C17.0207 9.096 16.7833 9 16.5 9C16.2167 9 15.9793 9.096 15.788 9.288C15.5967 9.48 15.5007 9.71733 15.5 10C15.4993 10.2827 15.5953 10.5203 15.788 10.713C15.9807 10.9057 16.218 11.0013 16.5 11ZM12.5 9C12.7833 9 13.021 8.904 13.213 8.712C13.405 8.52 13.5007 8.28267 13.5 8C13.4993 7.71733 13.4033 7.48 13.212 7.288C13.0207 7.096 12.7833 7 12.5 7H9.5C9.21667 7 8.97933 7.096 8.788 7.288C8.59667 7.48 8.50067 7.71733 8.5 8C8.49933 8.28267 8.59533 8.52033 8.788 8.713C8.98067 8.90567 9.218 9.00133 9.5 9H12.5Z" fill="black" fill-opacity="0.75"/>
</svg>
