<svg width="25" height="24" viewBox="0 0 25 24" fill="none" xmlns="http://www.w3.org/2000/svg">
<path d="M12.5 16C11.95 16 11.4793 15.8043 11.088 15.413C10.6967 15.0217 10.5007 14.5507 10.5 14C10.4993 13.4493 10.6953 12.9787 11.088 12.588C11.4807 12.1973 11.9513 12.0013 12.5 12C13.0487 11.9987 13.5197 12.1947 13.913 12.588C14.3063 12.9813 14.502 13.452 14.5 14C14.498 14.548 14.3023 15.019 13.913 15.413C13.5237 15.807 13.0527 16.0027 12.5 16ZM7.875 7H17.125L18.4 4.45C18.5667 4.11667 18.554 3.79167 18.362 3.475C18.17 3.15833 17.8827 3 17.5 3H7.5C7.11667 3 6.82933 3.15833 6.638 3.475C6.44667 3.79167 6.434 4.11667 6.6 4.45L7.875 7ZM8.9 21H16.1C17.6 21 18.875 20.4793 19.925 19.438C20.975 18.3967 21.5 17.1173 21.5 15.6C21.5 14.9667 21.3917 14.35 21.175 13.75C20.9583 13.15 20.65 12.6083 20.25 12.125L17.65 9H7.35L4.75 12.125C4.35 12.6083 4.04167 13.15 3.825 13.75C3.60833 14.35 3.5 14.9667 3.5 15.6C3.5 17.1167 4.021 18.396 5.063 19.438C6.105 20.48 7.384 21.0007 8.9 21Z" fill="black" fill-opacity="0.75"/>
</svg>
