<svg width="25" height="24" viewBox="0 0 25 24" fill="none" xmlns="http://www.w3.org/2000/svg">
<path d="M14.5 5V4C14.5 2.9 13.6 2 12.5 2H8.5C7.4 2 6.5 2.9 6.5 4V5C4.3 5 2.5 6.8 2.5 9V20C2.5 21.1 3.4 22 4.5 22H15.7L13.3 19.6C12.7 19.1 12.4 18.3 12.4 17.6V16H7.5V18H6.5V16H4.5V15H12.5V14.8C12.5 13.3 13.7 12 15.3 12H18.5V9C18.5 6.8 16.7 5 14.5 5ZM10.5 13L8.5 11L10.5 9L12.5 11L10.5 13ZM12.5 5H8.5V4H12.5V5ZM22.3 17.8L18.7 14.2C18.5 14.1 18.3 14 18.1 14H15.3C14.9 14 14.5 14.4 14.5 14.8V17.6C14.5 17.8 14.6 18 14.7 18.2L18.3 21.8C18.4 21.9 18.6 22 18.9 22C19.1 22 19.3 21.9 19.5 21.8L22.3 19C22.4 18.9 22.5 18.7 22.5 18.4C22.5 18.2 22.4 18 22.3 17.8ZM15.9 16C15.6 16 15.3 15.7 15.3 15.4C15.3 15.1 15.6 14.8 15.9 14.8C16.2 14.8 16.5 15.1 16.5 15.4C16.5 15.7 16.2 16 15.9 16Z" fill="#2A8C8B"/>
</svg>
